<svg xmlns="http://www.w3.org/2000/svg" version="1.1" xmlns:xlink="http://www.w3.org/1999/xlink" xmlns:svgjs="http://svgjs.dev/svgjs" width="2000" height="1247" viewBox="0 0 2000 1247"><g transform="matrix(1,0,0,1,-1.2121212121212466,0.504858299595071)"><svg viewBox="0 0 396 247" data-background-color="#dedede" preserveAspectRatio="xMidYMid meet" height="1247" width="2000" xmlns="http://www.w3.org/2000/svg" xmlns:xlink="http://www.w3.org/1999/xlink"><g id="tight-bounds" transform="matrix(1,0,0,1,0.2400000000000091,-0.09999999999999432)"><svg viewBox="0 0 395.52 247.2" height="247.2" width="395.52"><g><svg></svg></g><g><svg viewBox="0 0 395.52 247.2" height="247.2" width="395.52"><g transform="matrix(1,0,0,1,75.54432,88.2242527482679)"><svg viewBox="0 0 244.43135999999998 70.7514945034642" height="70.7514945034642" width="244.43135999999998"><g><svg viewBox="0 0 244.43135999999998 70.7514945034642" height="70.7514945034642" width="244.43135999999998"><g><svg viewBox="0 0 244.43135999999998 70.7514945034642" height="70.7514945034642" width="244.43135999999998"><g><svg viewBox="0 0 244.43135999999998 70.7514945034642" height="70.7514945034642" width="244.43135999999998"><g><svg viewBox="0 0 244.43135999999998 70.7514945034642" height="70.7514945034642" width="244.43135999999998"><g><svg viewBox="0 0 244.43135999999998 70.7514945034642" height="70.7514945034642" width="244.43135999999998"><g transform="matrix(1,0,0,1,0,0)"><svg width="244.43135999999998" viewBox="-3.15 -37 129.89 37.6" height="70.7514945034642" data-palette-color="#374151"><path d="M39.95-5.45Q40.15-4.95 40.15-4.5L40.15-4.5Q40.15-3.35 39.1-2.23 38.05-1.1 36.58-0.4 35.1 0.3 33.95 0.3L33.95 0.3Q31.35 0.3 30.18-2.88 29-6.05 28.35-10.6L28.35-10.6Q28.2-11.65 27.8-11.98 27.4-12.3 26.35-12.3L26.35-12.3 19.45-12.25Q17.95-12.25 15.75-12.35L15.75-12.35 15.15-11.4Q12.55-7.2 10.83-4.88 9.1-2.55 6.95-1 4.8 0.55 2.15 0.55L2.15 0.55Q0.3 0.55-0.88-0.15-2.05-0.85-2.6-1.85-3.15-2.85-3.15-3.75L-3.15-3.75Q-3.15-4.7-2.65-5.48-2.15-6.25-1.5-6.6L-1.5-6.6Q-1.5-4.45-0.48-3.13 0.55-1.8 2.5-1.8L2.5-1.8Q5.2-1.8 7.65-4.42 10.1-7.05 13.5-12.55L13.5-12.55Q10.85-12.85 10.7-13.55L10.7-13.55Q10.6-13.8 10.83-14.4 11.05-15 11.35-15.3L11.35-15.3Q12.1-15 14.8-14.65L14.8-14.65Q15.4-15.7 16.4-17.3L16.4-17.3Q25-31.55 27.5-35.5L27.5-35.5Q28.05-36.4 28.55-36.7 29.05-37 29.65-37L29.65-37Q30.45-37 31.3-36.75L31.3-36.75Q30.25-34.9 30.15-30.5L30.15-30.5 30.1-28.05Q30.1-22.95 30.5-16.7L30.5-16.7Q30.95-9.6 31.88-5.98 32.8-2.35 34.95-2.35L34.95-2.35Q36-2.35 37.38-3.23 38.75-4.1 39.95-5.45L39.95-5.45ZM22.85-14.15Q24.2-14.15 27.95-14.3L27.95-14.3Q27.85-18 27.78-22.48 27.7-26.95 27.65-30.25L27.65-30.25 27.65-31.9Q21.9-22.25 17.05-14.4L17.05-14.4Q20.3-14.15 22.85-14.15L22.85-14.15ZM78.7-11.55Q78.75-10 76.82-7.15 74.9-4.3 72.1-2.1 69.3 0.1 66.6 0.1L66.6 0.1Q64.7 0.1 63.47-1.13 62.25-2.35 62.25-4.85L62.25-4.85Q62.25-6.9 62.92-9.47 63.6-12.05 64.75-15.6L64.75-15.6Q65.1-16.55 65.4-17.6L65.4-17.6Q65.4-17.75 65.2-17.88 65-18 64.8-18L64.8-18Q64.15-18 62.22-16.13 60.3-14.25 58.32-11.83 56.35-9.4 55.7-8.15L55.7-8.15Q55.2-6.6 54.05-1.65L54.05-1.65Q53.85-0.8 53.72-0.5 53.6-0.2 53.3-0.2L53.3-0.2Q52.85-0.2 52.27-0.75 51.7-1.3 51.7-1.85L51.7-1.85Q51.7-2.4 52.2-4.25L52.2-4.25Q54.3-11.95 55.6-17.6L55.6-17.6Q55.3-18 54.85-18L54.85-18Q54.1-18 52.3-16.15 50.5-14.3 48.55-11.48 46.6-8.65 45.35-5.9L45.35-5.9Q44.6-3.45 44-0.25L44-0.25Q43.5-0.25 42.7-0.6 41.9-0.95 41.9-1.3L41.9-1.3Q41.9-1.7 42.4-3.55L42.4-3.55 46.65-20.1Q46.75-20.55 46.9-20.75 47.05-20.95 47.35-20.95L47.35-20.95Q47.65-20.95 48.37-20.65 49.1-20.35 49.3-20.15L49.3-20.15 48.85-18.55Q48.7-17.95 48.17-16.07 47.65-14.2 47.2-12.2L47.2-12.2Q48.75-14.9 50.42-16.68 52.1-18.45 53.5-19.28 54.9-20.1 55.65-20.1L55.65-20.1Q56.2-20.1 57.05-19.5 57.9-18.9 57.9-18.5L57.9-18.5Q57.45-15.75 56.6-12.3L56.6-12.3Q58.65-15.1 61.5-17.88 64.35-20.65 65.85-20.65L65.85-20.65Q66.55-20.65 67.35-20.1 68.15-19.55 68.2-18.8L68.2-18.8Q66.6-13.85 65.72-10.65 64.85-7.45 64.85-4.9L64.85-4.9Q64.85-3.4 65.35-2.73 65.85-2.05 67.15-2.05L67.15-2.05Q70.2-2.05 73.05-5.38 75.9-8.7 77.4-13.2L77.4-13.2Q77.95-13.2 78.32-12.7 78.7-12.2 78.7-11.55L78.7-11.55ZM103.8-11.55Q104.45-11.55 104.45-10.25L104.45-10.25Q104.45-7.95 102.42-5.4 100.4-2.85 97.52-1.13 94.65 0.6 92.25 0.6L92.25 0.6Q90.3 0.6 89.25-0.6 88.2-1.8 88-3.7L88-3.7Q86.75-1.9 84.85-0.75 82.95 0.4 81.45 0.4L81.45 0.4Q80.15 0.4 78.87-0.48 77.6-1.35 76.8-2.63 76-3.9 75.95-5.05L75.95-5.05 78.4-15.15Q78.7-16.35 79.92-17.73 81.15-19.1 82.9-20 84.65-20.9 86.45-20.9L86.45-20.9Q88.75-20.9 90.5-19.35L90.5-19.35Q90.95-20.55 91.17-20.85 91.4-21.15 91.85-21.2L91.85-21.2 94.3-21.45 94.45-21.35Q93.45-20.55 93-18.85L93-18.85Q91.45-13.05 90.87-10.3 90.3-7.55 90.3-5.45L90.3-5.45Q90.3-3.35 90.85-2.38 91.4-1.4 92.7-1.4L92.7-1.4Q94.3-1.4 96.52-2.7 98.75-4 100.75-6.33 102.75-8.65 103.8-11.55L103.8-11.55ZM81.65-1.95Q82.5-1.95 83.72-2.55 84.95-3.15 86.02-4.28 87.1-5.4 87.5-6.85L87.5-6.85 88.45-10.95Q88.65-11.95 89.15-14.18 89.65-16.4 89.95-17.6L89.95-17.6Q88.55-19 86.55-19L86.55-19Q85-19 83.75-18.18 82.5-17.35 81.7-16.18 80.9-15 80.7-14.1L80.7-14.1 78.7-5.2Q78.8-3.95 79.7-2.95 80.6-1.95 81.65-1.95L81.65-1.95ZM125.79-12.2Q126.29-12.2 126.52-11.78 126.74-11.35 126.74-10.8L126.74-10.8Q126.74-9 124.84-6.25 122.94-3.5 120.02-1.45 117.09 0.6 114.24 0.6L114.24 0.6Q112.44 0.6 111.47-0.3 110.49-1.2 110.49-3.05L110.49-3.05Q110.49-5.6 111.89-9.98 113.29-14.35 114.44-17.25L114.44-17.25Q114.24-17.55 114.04-17.55L114.04-17.55Q113.84-17.55 113.59-17.4L113.59-17.4Q112.69-16.85 110.64-14.95 108.59-13.05 106.64-10.95 104.69-8.85 103.99-7.55L103.99-7.55Q103.19-5.4 102.99-4.83 102.79-4.25 102.59-2.95L102.59-2.95 102.14-0.7Q102.09-0.55 102.04-0.33 101.99-0.1 101.92-0.05 101.84 0 101.69 0L101.69 0Q101.24 0 100.52-0.1 99.79-0.2 99.79-0.4L99.79-0.4Q99.79-1 100.14-2.35 100.49-3.7 100.84-4.8 101.19-5.9 101.39-6.5L101.39-6.5 101.84-7.9Q103.29-12.9 103.82-15.18 104.34-17.45 104.84-20.25L104.84-20.25Q104.89-20.75 105.54-20.75L105.54-20.75Q105.99-20.75 106.57-20.53 107.14-20.3 107.24-19.9L107.24-19.9Q107.04-19 106.52-16.85 105.99-14.7 105.24-12.1L105.24-12.1Q108.14-15.35 111.27-18 114.39-20.65 115.44-20.65L115.44-20.65Q115.94-20.65 116.64-20.15 117.34-19.65 117.49-19.2L117.49-19.2Q115.89-14.9 114.44-9.83 112.99-4.75 112.99-3.15L112.99-3.15Q112.99-1.4 114.99-1.4L114.99-1.4Q117.94-1.4 120.97-4.7 123.99-8 125.79-12.2L125.79-12.2Z" opacity="1" transform="matrix(1,0,0,1,0,0)" fill="#374151" class="undefined-text-0" data-fill-palette-color="primary" id="text-0"></path></svg></g></svg></g></svg></g></svg></g></svg></g></svg></g></svg></g><g><path d="M0 123.6c0-68.262 55.338-123.6 123.6-123.6 52.867 0 97.982 33.192 115.642 79.873l-3.418 0c-17.501-44.882-61.149-76.683-112.224-76.683-66.5 0-120.41 53.909-120.41 120.41 0 66.5 53.909 120.41 120.41 120.41 51.075 0 94.723-31.801 112.224-76.683l3.418 0c-17.661 46.681-62.775 79.873-115.642 79.873-68.262 0-123.6-55.338-123.6-123.6z" fill="#374151" stroke="transparent" data-fill-palette-color="tertiary"></path></g></svg></g><defs></defs></svg><rect width="395.52" height="247.2" fill="none" stroke="none" visibility="hidden"></rect></g></svg></g></svg>